<?xml version="1.0" encoding="utf-8"?>
<!-- Generator: Adobe Illustrator 24.3.0, SVG Export Plug-In . SVG Version: 6.00 Build 0)  -->
<svg version="1.1" id="Capa_1" xmlns="http://www.w3.org/2000/svg" xmlns:xlink="http://www.w3.org/1999/xlink" x="0px" y="0px"
	 viewBox="0 0 595.3 595.3" style="enable-background:new 0 0 595.3 595.3;" xml:space="preserve">
<style type="text/css">
	.st0{fill:#1E1E1E;stroke:#FFFFFF;stroke-miterlimit:10;}
	.st1{fill:#1E1E1E;}
</style>
<g>
	<path class="st0" d="M155.5,476.5c-17,0-34-2-51.1-6.1c-17-4.1-32.3-10.5-45.9-19.5s-24.7-20.4-33.4-34.4
		C16.4,402.7,12,386,12,366.5c0-17.4,3-33,9.1-46.8c6.1-13.8,13.7-26.1,22.8-37.1s19-20.3,29.8-28c10.7-7.7,20.8-14.2,30.1-19.4
		c9.3-5.3,17.3-9.2,24-11.9c6.7-2.6,10.6-4.1,11.8-4.6c-0.4,0-2.6-1.1-6.7-3.3c-4.1-2.2-8.5-5.7-13.4-10.3
		c-4.9-4.6-9.5-10.6-14-17.9c-4.5-7.3-7.5-16.2-9.1-26.8c-30.8-2.8-53.8-8.9-69-18.2c-15.2-9.3-22.8-21.3-22.8-35.9
		c0-10.1,2.9-20.1,8.8-29.8s12.9-18.4,21-26.1c8.1-7.7,16.3-14,24.6-18.9c8.3-4.9,14.7-7.3,19.2-7.3c2,0,3.4,0.6,4.3,1.8
		c0.8,1.2,1.2,2.4,1.2,3.6c0,2-1.8,5.6-5.5,10.6c-3.7,5.1-5.5,11.2-5.5,18.5c0,9.7,2.8,18.8,8.5,27.1c5.7,8.3,13.6,15.7,23.7,22.2
		c6.5-12.6,15.7-24.3,27.7-35.3C144.6,62,158,52.5,172.8,44.3c14.8-8.1,30.5-14.4,47.1-18.8c16.6-4.5,32.8-6.7,48.6-6.7
		c10.9,0,21.2,1.3,30.7,4c9.5,2.6,17.8,6.3,24.9,10.9c7.1,4.7,12.7,10.3,16.7,17c4,6.7,6.1,14.1,6.1,22.2c0,10.5-4.1,20.7-12.2,30.4
		c-8.1,9.7-19.8,18.5-35,26.4c-15.2,7.9-33.5,14.6-55,20.1c-21.5,5.5-45.6,9-72.3,10.6c0.4,6.9,1.3,13.1,2.7,18.5
		c1.4,5.5,3.1,10.2,5.2,14.3c2,4.5,4.3,8.7,6.7,12.8c3.2-0.4,7.1-1,11.6-1.8c3.6-0.4,8-0.8,13.1-1.2c5.1-0.4,10.8-0.6,17.3-0.6
		c23.9,0,35.9,7.1,35.9,21.3c0,6.1-3.5,12.3-10.6,18.5c-7.1,6.3-16.5,9.4-28.3,9.4c-7.3,0-14-0.5-20.1-1.5c-6.1-1-11.4-2.3-15.8-3.9
		c-4.9-1.6-9.3-3.6-13.4-6.1c-15,8.9-28.4,19.5-40.1,31.6c-10.1,10.5-19.4,23.5-27.7,38.9c-8.3,15.4-12.5,33.4-12.5,54.1
		c0,25.5,6.9,44.5,20.7,56.8c13.8,12.4,33.4,18.5,59,18.5c21.9,0,42.6-6.1,62-18.2c19.4-12.2,55.3-10.6,45.6-0.3
		c-9.7,10.3-21,19.6-33.7,27.7c-12.8,8.1-27.1,14.7-42.9,19.8C191.3,474,174.1,476.5,155.5,476.5z M266.7,44.9c-9.3,0-18.6,2-28,6.1
		c-9.3,4.1-18,9.6-26.1,16.7c-8.1,7.1-15.4,15.6-21.9,25.5c-6.5,9.9-11.4,20.8-14.6,32.5c17.4,0,33.5-1.4,48.3-4.3
		c14.8-2.8,27.7-6.9,38.6-12.2c10.9-5.3,19.5-11.6,25.5-18.8c6.1-7.3,9.1-15.4,9.1-24.3c0-6.5-3-11.7-9.1-15.5
		C282.5,46.9,275.2,44.9,266.7,44.9z"/>
	<path class="st0" d="M411.2,528.8c-8.5,10.1-18,18.8-28.6,26.1c-9.3,6.5-20.4,12.4-33.1,17.6s-27.5,7.9-44.1,7.9
		c-13,0-26-1.6-39.2-4.9c-13.2-3.2-25-8.5-35.6-15.8c-10.5-7.3-19.1-16.8-25.5-28.6c-6.5-11.8-9.7-26.1-9.7-43.2
		c0-20.3,4.1-39.6,12.5-58c8.3-18.4,19-34.5,32.2-48.3c13.2-13.8,27.9-24.7,44.1-32.8c16.2-8.1,32-12.2,47.4-12.2
		c10.9,0,20.7,1.7,29.2,5.2c8.5,3.5,15.7,8,21.6,13.7c5.9,5.7,10.4,12.1,13.7,19.1c3.2,7.1,4.9,14.1,4.9,21c0,5.3-1.1,10.6-3.3,16.1
		c-2.2,5.5-5.2,10.4-8.8,14.9c-3.6,4.5-7.6,8.1-11.9,10.9c-4.2,2.8-8.4,4.3-12.5,4.3c-8.1,0-15.3-2.5-21.6-7.6
		c-6.3-5.1-9.4-11-9.4-17.9c0-5.3,1.2-9.5,3.6-12.8c2.4-3.2,5.2-6.2,8.2-8.8c3-2.6,5.9-5.1,8.5-7.3c2.6-2.2,4-5,4-8.2
		c0-3.2-1.7-6.2-5.2-8.8c-3.5-2.6-7.6-4-12.5-4c-8.9,0-17.5,3.3-25.8,10s-15.7,15.5-22.2,26.4c-6.5,10.9-11.8,23.2-15.8,36.8
		c-4.1,13.6-6.1,27.3-6.1,41c0,10.5,1.6,19.6,4.9,27c3.2,7.5,7.6,13.7,13.1,18.5s11.8,8.5,18.8,10.9s14.3,3.7,21.6,3.7
		c9.3,0,17.5-1.2,24.6-3.7c7.1-2.4,13.2-5.3,18.2-8.5c5.1-3.2,9.4-6.6,13.1-10c3.6-3.4,6.5-6.2,8.5-8.2l4.2-4.3
		c1.2-0.8,2.6-1.7,4.3-2.7c1.6-1,3.2-1.5,4.9-1.5c3.6,0,6.7,1.2,9.1,3.6s3.6,5.3,3.6,8.5c0,1.6-0.5,3.1-1.5,4.6
		c-1,1.4-1.9,2.9-2.7,4.6C413.7,525,412.4,526.8,411.2,528.8z"/>
</g>
<g>
	<path class="st1" d="M289.9,318.1H265v-41.5h23.9v7.6h-14.6v9.2h13.6v7.6h-13.6v9.5h15.5L289.9,318.1L289.9,318.1z"/>
	<path class="st1" d="M293.7,317.4V310c1.5,0.9,3,1.6,4.5,2c1.5,0.4,2.9,0.7,4.2,0.7c1.6,0,2.9-0.2,3.8-0.7s1.4-1.1,1.4-2
		c0-0.6-0.2-1.1-0.6-1.5c-0.4-0.4-1-0.7-1.6-1s-1.4-0.5-2.2-0.8c-0.8-0.2-1.5-0.5-2.3-0.8c-1.2-0.4-2.2-0.9-3.1-1.4
		c-0.9-0.5-1.6-1.1-2.2-1.8s-1.1-1.5-1.4-2.3s-0.5-1.9-0.5-3.1c0-1.7,0.4-3.1,1.1-4.3s1.7-2.2,2.9-2.9c1.2-0.8,2.6-1.3,4.1-1.7
		c1.5-0.4,3.2-0.5,4.8-0.5c1.3,0,2.6,0.1,4,0.3c1.4,0.2,2.7,0.5,4,0.9v7c-1.2-0.7-2.4-1.2-3.7-1.5c-1.3-0.3-2.6-0.5-3.9-0.5
		c-0.6,0-1.2,0-1.7,0.2c-0.5,0.1-1,0.3-1.4,0.5c-0.4,0.2-0.7,0.5-1,0.8s-0.4,0.7-0.4,1.1c0,0.5,0.2,1,0.5,1.4c0.4,0.4,0.8,0.7,1.4,1
		s1.2,0.5,1.9,0.8c0.7,0.2,1.4,0.5,2,0.7c1.2,0.4,2.3,0.9,3.3,1.4c1,0.5,1.8,1.1,2.5,1.8s1.2,1.5,1.6,2.4s0.6,2,0.6,3.2
		c0,1.8-0.4,3.2-1.1,4.5c-0.8,1.2-1.8,2.2-3,3c-1.3,0.8-2.7,1.4-4.4,1.7s-3.4,0.5-5.1,0.5C299.5,318.9,296.4,318.4,293.7,317.4z"/>
	<path class="st1" d="M339.5,317.8c-1.4,0.7-3.4,1.1-6.1,1.1c-6.4,0-9.7-3.3-9.7-10v-13.6H319v-6.7h4.8v-6.4l9.1-2.6v9h6.6v6.7h-6.6
		v12c0,3.1,1.2,4.6,3.7,4.6c1,0,2-0.3,3-0.8V317.8z"/>
	<path class="st1" d="M371.3,305.9H352c0.3,4.3,3,6.5,8.1,6.5c3.3,0,6.1-0.8,8.6-2.3v6.6c-2.7,1.5-6.3,2.2-10.7,2.2
		c-4.8,0-8.5-1.3-11.1-4c-2.6-2.6-4-6.4-4-11.1c0-4.9,1.4-8.8,4.3-11.7s6.4-4.3,10.5-4.3c4.3,0,7.7,1.3,10,3.8s3.5,6,3.5,10.4
		L371.3,305.9L371.3,305.9z M362.8,300.3c0-4.2-1.7-6.4-5.1-6.4c-1.5,0-2.7,0.6-3.8,1.8c-1.1,1.2-1.7,2.7-2,4.5L362.8,300.3
		L362.8,300.3z"/>
	<path class="st1" d="M396,281.3c-1.2-0.5-2.3-0.7-3.4-0.7c-2.9,0-4.4,1.6-4.4,4.8v3.1h6.8v6.7h-6.8v22.9h-9.1v-22.9h-5v-6.7h5v-3.7
		c0-3.4,1.1-6.1,3.3-8.1c2.2-2.1,5.2-3.1,9-3.1c1.9,0,3.4,0.2,4.6,0.6L396,281.3L396,281.3z"/>
	<path class="st1" d="M424,318.1h-8.6v-4.2h-0.1c-2,3.3-4.9,5-8.8,5c-2.9,0-5.1-0.8-6.8-2.4s-2.5-3.8-2.5-6.5
		c0-5.7,3.4-9.1,10.2-9.9l8-1.1c0-3.2-1.8-4.9-5.3-4.9c-3.5,0-6.9,1-10.1,3.1v-6.9c1.3-0.6,3-1.2,5.2-1.7s4.2-0.8,6-0.8
		c8.4,0,12.7,4.2,12.7,12.6V318.1z M415.5,306.1v-2l-5.4,0.7c-3,0.4-4.5,1.7-4.5,4c0,1,0.4,1.9,1.1,2.6s1.7,1,2.9,1
		c1.7,0,3.1-0.6,4.2-1.8C414.9,309.4,415.5,307.9,415.5,306.1z"/>
	<path class="st1" d="M459.9,318.1h-9.1v-16.5c0-4.6-1.6-6.9-4.9-6.9c-1.6,0-2.9,0.6-3.9,1.8c-1,1.2-1.5,2.8-1.5,4.6l0,19.1h-9.1
		l0-31.8h9.1v4.7h0.1c2.2-3.6,5.4-5.4,9.5-5.4c6.5,0,9.8,4.1,9.8,12.2L459.9,318.1L459.9,318.1z"/>
	<path class="st1" d="M481.2,318.9c-4.9,0-8.8-1.4-11.6-4.1c-2.8-2.8-4.2-6.5-4.2-11.3c0-4.9,1.5-8.7,4.4-11.5
		c2.9-2.8,6.9-4.1,11.9-4.1c4.9,0,8.8,1.4,11.6,4.1s4.2,6.4,4.2,11c0,4.9-1.4,8.8-4.3,11.6C490.1,317.4,486.2,318.9,481.2,318.9z
		 M481.4,294.8c-2.2,0-3.8,0.7-5,2.2c-1.2,1.5-1.8,3.6-1.8,6.3c0,5.7,2.3,8.5,6.9,8.5c4.4,0,6.6-2.9,6.6-8.8
		C488,297.6,485.8,294.8,481.4,294.8z"/>
</g>
<path class="st1" d="M424.9,375.1c-3,1.5-7,2.2-11.9,2.2c-6.4,0-11.4-1.9-15-5.6s-5.5-8.7-5.5-14.9c0-6.6,2-12,6.1-16.1
	c4.1-4.1,9.4-6.2,15.9-6.2c4,0,7.5,0.5,10.2,1.5v9c-2.8-1.7-5.9-2.5-9.5-2.5c-3.9,0-7,1.2-9.4,3.7s-3.6,5.8-3.6,9.9
	c0,4,1.1,7.2,3.4,9.6s5.3,3.6,9.1,3.6c3.6,0,7-0.9,10-2.7L424.9,375.1L424.9,375.1z"/>
<path class="st1" d="M459.7,376.6h-9.1v-16.8c0-4.3-1.6-6.5-4.7-6.5c-1.6,0-2.9,0.6-3.9,1.8s-1.5,2.8-1.5,4.6v16.9h-9.1v-58.5h9.1
	v33.3h0.1c2.2-3.4,5.3-5.1,9.1-5.1c6.7,0,10.1,4,10.1,12.1L459.7,376.6L459.7,376.6z"/>
<path class="st1" d="M491.5,376.6h-8.6v-4.2h-0.1c-2,3.3-4.9,5-8.8,5c-2.9,0-5.1-0.8-6.8-2.4s-2.5-3.8-2.5-6.5
	c0-5.7,3.4-9.1,10.2-9.9l8-1.1c0-3.2-1.8-4.9-5.3-4.9c-3.5,0-6.9,1-10.1,3.1v-6.9c1.3-0.7,3-1.2,5.2-1.7c2.2-0.5,4.2-0.8,6-0.8
	c8.4,0,12.7,4.2,12.7,12.6V376.6z M483,364.6v-2l-5.4,0.7c-3,0.4-4.5,1.7-4.5,4c0,1,0.4,1.9,1.1,2.6s1.7,1,2.9,1
	c1.7,0,3.1-0.6,4.2-1.8C482.4,367.9,483,366.4,483,364.6z"/>
<path class="st1" d="M521.2,375.5c-2.1,1.2-5,1.8-8.9,1.8c-4.5,0-8.2-1.4-11-4.1s-4.2-6.3-4.2-10.7c0-5,1.5-9,4.5-11.9
	c3-2.9,7-4.4,12.1-4.4c3.5,0,6,0.5,7.6,1.4v7.8c-1.9-1.4-4-2.1-6.4-2.1c-2.6,0-4.7,0.8-6.2,2.3s-2.3,3.6-2.3,6.4
	c0,2.6,0.7,4.7,2.2,6.2c1.5,1.5,3.5,2.2,6,2.2c2.3,0,4.5-0.7,6.7-2.1V375.5z"/>
<path class="st1" d="M541.3,377.3c-4.9,0-8.8-1.4-11.6-4.1c-2.8-2.8-4.2-6.5-4.2-11.3c0-4.9,1.5-8.7,4.4-11.5
	c2.9-2.8,6.9-4.1,11.9-4.1c4.9,0,8.8,1.4,11.6,4.1c2.8,2.8,4.2,6.4,4.2,11c0,4.9-1.4,8.8-4.3,11.6
	C550.2,375.9,546.3,377.3,541.3,377.3z M541.5,353.2c-2.2,0-3.8,0.7-5,2.2c-1.2,1.5-1.8,3.6-1.8,6.3c0,5.7,2.3,8.5,6.9,8.5
	c4.4,0,6.6-2.9,6.6-8.8C548.1,356,545.9,353.2,541.5,353.2z M551.3,333l-9,9.3h-6.6l7.5-9.3H551.3z"/>
<path class="st1" d="M591.9,376.6h-9.1v-16.5c0-4.6-1.6-6.9-4.9-6.9c-1.6,0-2.9,0.6-3.9,1.8c-1,1.2-1.5,2.8-1.5,4.6v16.9h-9.1V347
	h9.1v4.7h0.1c2.2-3.6,5.3-5.4,9.5-5.4c6.5,0,9.8,4.1,9.8,12.2"/>
</svg>
