<?xml version="1.0" encoding="utf-8"?>
<!-- Generator: Adobe Illustrator 24.3.0, SVG Export Plug-In . SVG Version: 6.00 Build 0)  -->
<svg version="1.1" id="Capa_1" xmlns="http://www.w3.org/2000/svg" xmlns:xlink="http://www.w3.org/1999/xlink" x="0px" y="0px"
	 viewBox="0 0 595.3 595.3" style="enable-background:new 0 0 595.3 595.3;" xml:space="preserve">
<style type="text/css">
	.st0{fill:#1E1E1E;stroke:#FFFFFF;stroke-miterlimit:10;}
</style>
<g>
	<path class="st0" d="M241.2,477.6c-17,0-34-2-51.1-6.1c-17-4.1-32.3-10.5-45.9-19.5s-24.7-20.4-33.4-34.4s-13.1-30.7-13.1-50.1
		c0-17.4,3-33,9.1-46.8s13.7-26.1,22.8-37.1s19-20.3,29.8-28c10.7-7.7,20.8-14.2,30.1-19.4c9.3-5.3,17.3-9.2,24-11.9
		c6.7-2.6,10.6-4.1,11.9-4.6c-0.4,0-2.6-1.1-6.7-3.3c-4.1-2.2-8.5-5.7-13.4-10.3s-9.5-10.6-14-17.9c-4.5-7.3-7.5-16.2-9.1-26.8
		c-30.8-2.8-53.8-8.9-69-18.2s-22.8-21.3-22.8-35.9c0-10.1,2.9-20.1,8.8-29.8s12.9-18.4,21-26.1s16.3-14,24.6-18.8
		c8.3-4.9,14.7-7.3,19.1-7.3c2,0,3.4,0.6,4.3,1.8c0.8,1.2,1.2,2.4,1.2,3.6c0,2-1.8,5.6-5.5,10.6c-3.7,5.1-5.5,11.2-5.5,18.5
		c0,9.7,2.8,18.8,8.5,27.1s13.6,15.7,23.7,22.2c6.5-12.6,15.7-24.3,27.7-35.3c11.9-10.9,25.3-20.5,40.1-28.6
		c14.8-8.1,30.5-14.4,47.1-18.8c16.6-4.5,32.8-6.7,48.6-6.7c10.9,0,21.2,1.3,30.7,4c9.5,2.6,17.8,6.3,24.9,10.9
		c7.1,4.7,12.7,10.3,16.7,17s6.1,14.1,6.1,22.2c0,10.5-4.1,20.7-12.2,30.4s-19.8,18.5-35,26.4s-33.5,14.6-55,20.1s-45.6,9-72.3,10.6
		c0.4,6.9,1.3,13.1,2.7,18.5c1.4,5.5,3.1,10.2,5.2,14.3c2,4.5,4.3,8.7,6.7,12.8c3.2-0.4,7.1-1,11.6-1.8c3.6-0.4,8-0.8,13.1-1.2
		s10.8-0.6,17.3-0.6c23.9,0,35.9,7.1,35.9,21.3c0,6.1-3.5,12.3-10.6,18.5c-7.1,6.3-16.5,9.4-28.3,9.4c-7.3,0-14-0.5-20.1-1.5
		s-11.4-2.3-15.8-3.9c-4.9-1.6-9.3-3.6-13.4-6.1c-15,8.9-28.4,19.5-40.1,31.6c-10.1,10.5-19.4,23.5-27.7,38.9S182,344.9,182,365.6
		c0,25.5,6.9,44.5,20.7,56.8c13.8,12.4,33.4,18.5,59,18.5c21.9,0,42.5-6.1,62-18.2c19.5-12.2,55.3-10.6,45.6-0.3
		c-9.7,10.3-21,19.6-33.7,27.7c-12.8,8.1-27,14.7-42.9,19.8C277.1,475,259.8,477.6,241.2,477.6z M352.4,45.9c-9.3,0-18.6,2-28,6.1
		c-9.3,4.1-18,9.6-26.1,16.7s-15.4,15.6-21.9,25.5S265,115,261.8,126.7c17.4,0,33.5-1.4,48.3-4.3c14.8-2.8,27.7-6.9,38.6-12.2
		c10.9-5.3,19.5-11.6,25.5-18.8c6.1-7.3,9.1-15.4,9.1-24.3c0-6.5-3-11.7-9.1-15.5C368.2,47.9,360.9,45.9,352.4,45.9z"/>
	<path class="st0" d="M496.9,529.8c-8.5,10.1-18,18.8-28.6,26.1c-9.3,6.5-20.4,12.4-33.1,17.6s-27.5,7.9-44.1,7.9
		c-13,0-26-1.6-39.2-4.9c-13.2-3.2-25-8.5-35.6-15.8c-10.5-7.3-19.1-16.8-25.5-28.6c-6.5-11.8-9.7-26.1-9.7-43.2
		c0-20.3,4.1-39.6,12.5-58c8.3-18.4,19-34.5,32.2-48.3s27.9-24.7,44.1-32.8c16.2-8.1,32-12.2,47.4-12.2c10.9,0,20.7,1.7,29.2,5.2
		s15.7,8,21.6,13.7s10.4,12.1,13.7,19.1c3.2,7.1,4.9,14.1,4.9,21c0,5.3-1.1,10.6-3.3,16.1c-2.2,5.5-5.2,10.4-8.8,14.9
		c-3.6,4.5-7.6,8.1-11.9,10.9c-4.2,2.8-8.4,4.3-12.5,4.3c-8.1,0-15.3-2.5-21.6-7.6c-6.3-5.1-9.4-11-9.4-17.9c0-5.3,1.2-9.5,3.6-12.8
		c2.4-3.2,5.2-6.2,8.2-8.8c3-2.6,5.9-5.1,8.5-7.3c2.6-2.2,4-5,4-8.2s-1.7-6.2-5.2-8.8c-3.5-2.6-7.6-4-12.5-4
		c-8.9,0-17.5,3.3-25.8,10s-15.7,15.5-22.2,26.4S366,427,362,440.6c-4.1,13.6-6.1,27.3-6.1,41c0,10.5,1.6,19.6,4.9,27
		c3.2,7.5,7.6,13.7,13.1,18.5s11.8,8.5,18.8,10.9c7.1,2.4,14.3,3.7,21.6,3.7c9.3,0,17.5-1.2,24.6-3.7c7.1-2.4,13.2-5.3,18.2-8.5
		c5.1-3.2,9.4-6.6,13.1-10c3.6-3.4,6.5-6.2,8.5-8.2l4.2-4.3c1.2-0.8,2.6-1.7,4.3-2.7c1.6-1,3.2-1.5,4.9-1.5c3.6,0,6.7,1.2,9.1,3.6
		s3.6,5.3,3.6,8.5c0,1.6-0.5,3.1-1.5,4.6c-1,1.4-1.9,2.9-2.7,4.6C499.4,526,498.2,527.8,496.9,529.8z"/>
</g>
</svg>
